<svg width="52" height="60" viewBox="0 0 52 60" fill="none" xmlns="http://www.w3.org/2000/svg">
<path d="M51.3015 29.2256C51.0515 34.2673 49.8015 38.2464 47.5515 41.1631C45.3015 44.0798 42.291 45.5381 38.5202 45.5381C34.6244 45.5381 32.1244 43.7881 31.0202 40.2881C29.8952 42.0589 28.6035 43.3818 27.1452 44.2568C25.7077 45.111 24.2181 45.5381 22.6765 45.5381C19.7181 45.5381 17.4785 44.3298 15.9577 41.9131C14.4369 39.4964 13.8744 36.1527 14.2702 31.8818C14.5827 28.4443 15.364 25.3818 16.614 22.6943C17.8848 19.986 19.5098 17.861 21.489 16.3193C23.489 14.7777 25.5827 14.0068 27.7702 14.0068C29.4577 14.0068 30.9681 14.236 32.3015 14.6943C33.6348 15.1318 35.1348 16.0068 36.8015 17.3193L35.1765 34.6318C34.7806 39.4443 36.114 41.8506 39.1765 41.8506C41.5306 41.8506 43.4369 40.6839 44.8952 38.3506C46.3535 36.0173 47.1452 32.9756 47.2702 29.2256C47.666 21.1214 46.1556 14.9443 42.739 10.6943C39.3431 6.44434 34.166 4.31934 27.2077 4.31934C23.0202 4.31934 19.3015 5.361 16.0515 7.44434C12.8015 9.50684 10.239 12.4964 8.36396 16.4131C6.48896 20.3298 5.43687 24.8506 5.20771 29.9756C4.95771 35.1423 5.58271 39.6318 7.08271 43.4443C8.58271 47.236 10.864 50.1318 13.9265 52.1318C17.0098 54.1527 20.7285 55.1631 25.0827 55.1631C26.9577 55.1631 28.8327 54.9339 30.7077 54.4756C32.6035 54.0173 34.1765 53.4235 35.4265 52.6943L36.5827 56.2881C35.291 57.1006 33.5723 57.7673 31.4265 58.2881C29.3015 58.8089 27.1452 59.0693 24.9577 59.0693C19.7494 59.0693 15.2702 57.8923 11.5202 55.5381C7.77021 53.2048 4.95771 49.8298 3.08271 45.4131C1.22854 41.0173 0.426456 35.8714 0.676456 29.9756C0.926456 24.2464 2.20771 19.1006 4.52021 14.5381C6.83271 9.95475 9.96812 6.4235 13.9265 3.94434C17.8848 1.44434 22.3535 0.194336 27.3327 0.194336C32.5202 0.194336 36.9681 1.361 40.6765 3.69434C44.3848 6.02767 47.1452 9.39225 48.9577 13.7881C50.7702 18.1839 51.5515 23.3298 51.3015 29.2256ZM19.239 31.8818C18.9473 34.8402 19.2181 37.111 20.0515 38.6943C20.9056 40.2777 22.2494 41.0693 24.0827 41.0693C25.3327 41.0693 26.5306 40.5381 27.6765 39.4756C28.8431 38.4131 29.8015 36.8923 30.5515 34.9131L30.5827 34.6318L32.0202 18.9131C30.8535 18.3089 29.6035 18.0068 28.2702 18.0068C25.8327 18.0068 23.8119 19.2464 22.2077 21.7256C20.6244 24.2048 19.6348 27.5902 19.239 31.8818Z" fill="white"/>
</svg>
