<svg width="53" height="49" viewBox="0 0 53 49" fill="none" xmlns="http://www.w3.org/2000/svg">
<path d="M-nan -nanL8.50166 42.1991C8.67549 42.0134 9.05049 41.6585 9.62044 41.1902C10.5881 40.3953 11.7393 39.5971 13.0675 38.8509C16.8196 36.743 21.1993 35.4667 26.1776 35.4344C31.1889 35.4019 35.6853 36.741 39.6037 38.9969C40.959 39.7771 42.1446 40.6124 43.15 41.4448C43.4986 41.7335 43.7987 42 44.0491 42.2369C44.2061 42.3855 44.4566 42.3981 44.6226 42.2591L45.2581 41.7269C45.8073 41.267 45.8498 40.4579 45.3092 39.9883C45.1718 39.869 45.0227 39.7423 44.8618 39.6091C43.7486 38.6874 42.4442 37.7685 40.9557 36.9115C36.6483 34.4317 31.6894 32.9549 26.1598 32.9907C20.6929 33.0262 15.8691 34.4319 11.7395 36.752C10.2724 37.5762 8.99671 38.4606 7.91625 39.3483C7.76486 39.4726 7.62427 39.5911 7.4945 39.7031C6.96207 40.1625 7.00636 40.9565 7.54742 41.4061L8.50166 42.1991L-nan -nanZ" fill="white"/>
<path d="M-nan -nanL6.55665 9.66683C6.80276 9.92979 7.25731 10.36 7.91625 10.9014C8.99671 11.789 10.2724 12.6734 11.7395 13.4977C15.8691 15.8177 20.6929 17.2234 26.1598 17.2589C31.6894 17.2948 36.6483 15.8179 40.9557 13.3381C42.4442 12.4811 43.7486 11.5622 44.8618 10.6405C45.0227 10.5073 45.1718 10.3806 45.3092 10.2613C45.8498 9.79174 45.8073 8.9826 45.2581 8.52269L44.6226 7.9905C44.4566 7.85151 44.2061 7.86411 44.0491 8.01273C43.7987 8.24967 43.4986 8.51612 43.15 8.80478C42.1446 9.63726 40.959 10.4725 39.6037 11.2528C35.6853 13.5086 31.1889 14.8477 26.1776 14.8152C21.1993 14.7829 16.8196 13.5066 13.0675 11.3987C11.7393 10.6525 10.5881 9.85436 9.62044 9.05939C9.54869 9.00044 9.48002 8.94329 9.41446 8.88805C8.88486 8.44179 8.08013 8.40079 7.54742 8.84348L6.55665 9.66683L-nan -nanZ" fill="white"/>
<path fill-rule="evenodd" clip-rule="evenodd" d="M25.1152 3.71272C25.1152 3.01188 25.6957 2.44373 26.4118 2.44373C27.1279 2.44373 27.7085 3.01187 27.7085 3.71272V46.3834C27.7085 47.0842 27.1279 47.6524 26.4118 47.6524C25.6957 47.6524 25.1152 47.0842 25.1152 46.3834V3.71272Z" fill="white"/>
<path fill-rule="evenodd" clip-rule="evenodd" d="M0.478516 24.4371C0.478516 23.7623 1.03748 23.2153 1.727 23.2153H51.0966C51.7861 23.2153 52.3451 23.7623 52.3451 24.4371C52.3451 25.1119 51.7861 25.659 51.0966 25.659H1.72699C1.03748 25.659 0.478516 25.1119 0.478516 24.4371Z" fill="white"/>
<path fill-rule="evenodd" clip-rule="evenodd" d="M12.1485 24.4371C12.1485 37.9334 18.5344 48.8743 27.091 48.8743C34.2892 48.8743 40.6751 37.9334 40.6751 24.4371C40.6751 10.9409 34.2892 0 27.091 0C18.5344 0 12.1485 10.9409 12.1485 24.4371ZM38.0818 24.4371C38.0818 36.5762 32.5193 46.4305 27.091 46.4305C20.4652 46.4305 14.7419 36.937 14.7419 24.4371C14.7419 11.9372 20.4652 2.44373 27.091 2.44373C32.5193 2.44373 38.0818 12.298 38.0818 24.4371Z" fill="white"/>
<path fill-rule="evenodd" clip-rule="evenodd" d="M0.478516 24.4371C0.478516 37.9334 12.0892 48.8743 26.4118 48.8743C40.7344 48.8743 52.3451 37.9334 52.3451 24.4371C52.3451 10.9409 40.7344 0 26.4118 0C12.0892 0 0.478516 10.9409 0.478516 24.4371ZM49.7518 24.4371C49.7518 36.5837 39.3021 46.4305 26.4118 46.4305C13.5215 46.4305 3.07186 36.5837 3.07186 24.4371C3.07186 12.2905 13.5215 2.44373 26.4118 2.44373C39.3021 2.44373 49.7518 12.2905 49.7518 24.4371Z" fill="white"/>
</svg>
