<svg width="721" height="721" viewBox="0 0 721 721" fill="none" xmlns="http://www.w3.org/2000/svg">
<path d="M360.12 0.117187L389.687 45.3685L419.854 89.7193L389.687 134.07L360.12 179.321L330.552 134.07L300.385 89.7193L330.552 45.3685L360.12 0.117187Z" fill="#1273E4" fill-opacity="0.95"/>
<path d="M360.12 540.916L389.687 586.167L419.854 630.518L389.687 674.869L360.12 720.12L330.552 674.869L300.385 630.518L330.552 586.167L360.12 540.916Z" fill="#1273E4" fill-opacity="0.95"/>
<path d="M720.121 360.119L674.87 389.686L630.519 419.853L586.168 389.686L540.917 360.119L586.168 330.551L630.519 300.384L674.87 330.551L720.121 360.119Z" fill="#1273E4" fill-opacity="0.95"/>
<path d="M179.322 360.119L134.071 389.686L89.7201 419.853L45.3693 389.686L0.117984 360.119L45.3693 330.551L89.7201 300.384L134.071 330.551L179.322 360.119Z" fill="#1273E4" fill-opacity="0.95"/>
<path d="M614.679 614.678L561.774 603.588L509.082 593.559L499.053 540.866L487.963 487.962L540.867 499.052L593.56 509.081L603.589 561.774L614.679 614.678Z" fill="#1273E4" fill-opacity="0.95"/>
<path d="M232.275 232.276L179.37 221.186L126.678 211.157L116.649 158.464L105.558 105.559L158.463 116.65L211.155 126.679L221.184 179.371L232.275 232.276Z" fill="#1273E4" fill-opacity="0.95"/>
<path d="M105.558 614.678L116.648 561.773L126.677 509.081L179.37 499.052L232.275 487.962L221.184 540.866L211.155 593.559L158.463 603.588L105.558 614.678Z" fill="#1273E4" fill-opacity="0.95"/>
<path d="M487.962 232.276L499.053 179.371L509.082 126.679L561.774 116.65L614.679 105.559L603.589 158.464L593.559 211.156L540.867 221.185L487.962 232.276Z" fill="#1273E4" fill-opacity="0.95"/>
</svg>
